<svg width="23" height="22" viewBox="0 0 23 22" fill="none" xmlns="http://www.w3.org/2000/svg">
<ellipse cx="11.8124" cy="11" rx="11.0094" ry="11" fill="#3D3C49"/>
<g clip-path="url(#clip0_115_10439)">
<path fill-rule="evenodd" clip-rule="evenodd" d="M9.47858 16.0287C14.2265 16.0287 16.8234 12.1589 16.8234 8.8035C16.8234 8.69334 16.8234 8.58401 16.8159 8.47509C17.3211 8.11615 17.757 7.67049 18.1037 7.16056C17.6331 7.36602 17.133 7.50076 16.6215 7.56017C17.16 7.24269 17.5633 6.74393 17.7564 6.1554C17.2493 6.45121 16.6951 6.65998 16.1169 6.772C15.1393 5.74964 13.5043 5.70011 12.4643 6.66181C11.7943 7.2819 11.5093 8.20645 11.7176 9.08832C9.64215 8.98559 7.70827 8.02143 6.3972 6.43531C5.7121 7.59566 6.06252 9.07952 7.1968 9.82462C6.78599 9.81286 6.38399 9.70406 6.02477 9.50726V9.53949C6.0254 10.7481 6.89168 11.7888 8.0958 12.0283C7.71582 12.1304 7.31696 12.1452 6.93069 12.0716C7.26852 13.1063 8.23798 13.815 9.34206 13.8354C8.42797 14.5422 7.29872 14.9259 6.13612 14.9247C5.93103 14.9241 5.72594 14.9123 5.52148 14.8882C6.70232 15.6333 8.07567 16.0287 9.47858 16.0269" fill="white"/>
</g>
<defs>
<clipPath id="clip0_115_10439">
<rect width="12.5822" height="12.5714" fill="white" transform="translate(5.52148 4.71436)"/>
</clipPath>
</defs>
</svg>
