<svg width="23" height="22" viewBox="0 0 23 22" fill="none" xmlns="http://www.w3.org/2000/svg">
<ellipse cx="11.4132" cy="11" rx="11.0094" ry="11" fill="#3D3C49"/>
<g clip-path="url(#clip0_115_10446)">
<path fill-rule="evenodd" clip-rule="evenodd" d="M10.1479 12.6257V9.09823C11.4012 9.68747 12.3719 10.2567 13.5199 10.8704C12.5731 11.3951 11.4012 11.9838 10.1479 12.6257ZM17.1326 7.34388C16.9164 7.05928 16.548 6.83775 16.1557 6.76441C15.0026 6.54564 7.80923 6.54502 6.65681 6.76441C6.34223 6.82333 6.0621 6.96576 5.82146 7.18704C4.80753 8.12732 5.12525 13.1697 5.36965 13.9865C5.47242 14.3401 5.60528 14.5951 5.77259 14.7624C5.98816 14.9837 6.28331 15.1361 6.62234 15.2044C7.57172 15.4006 12.4628 15.5103 16.1356 15.2339C16.474 15.1749 16.7736 15.0177 17.0098 14.787C17.9473 13.8505 17.8834 8.52487 17.1326 7.34388Z" fill="white"/>
</g>
<defs>
<clipPath id="clip0_115_10446">
<rect width="12.5822" height="12.5714" fill="white" transform="translate(5.12231 4.71436)"/>
</clipPath>
</defs>
</svg>
