<svg width="9" height="8" viewBox="0 0 9 8" fill="none" xmlns="http://www.w3.org/2000/svg">
<path fill-rule="evenodd" clip-rule="evenodd" d="M2.82741 0.0490917C2.1757 0.0784717 1.61083 0.23767 1.15472 0.691474C0.697005 1.14766 0.539649 1.71428 0.51017 2.35866C0.491846 2.76085 0.384694 5.79932 0.695412 6.59616C0.904947 7.13374 1.31763 7.54707 1.86059 7.7571C2.11395 7.85556 2.40316 7.92221 2.82741 7.94167C6.37477 8.10207 7.68974 8.01474 8.24425 6.59616C8.34264 6.34365 8.41036 6.05493 8.42909 5.6321C8.59122 2.07868 8.4028 1.30846 7.78455 0.691474C7.29418 0.20273 6.71735 -0.129968 2.82741 0.0490917ZM2.86007 7.22702C2.47167 7.20955 2.26094 7.14489 2.12032 7.0905C1.76658 6.95312 1.50088 6.68874 1.36425 6.33737C1.12762 5.7319 1.2061 2.85621 1.22721 2.39089C1.24793 1.9351 1.34035 1.51854 1.66222 1.19694C2.06057 0.799911 2.57524 0.605329 6.07958 0.763349C6.53689 0.783993 6.95477 0.876143 7.27744 1.19694C7.6758 1.59397 7.87338 2.11216 7.71244 5.60007C7.69492 5.98717 7.62999 6.19722 7.57541 6.33737C7.2149 7.26046 6.38552 7.38861 2.86007 7.22702ZM6.11822 1.87585C6.11822 2.13869 6.33215 2.35241 6.59626 2.35241C6.86037 2.35241 7.07468 2.13869 7.07468 1.87585C7.07468 1.61302 6.86037 1.39948 6.59626 1.39948C6.33215 1.39948 6.11822 1.61302 6.11822 1.87585ZM2.42427 3.99519C2.42427 5.12116 3.34009 6.03405 4.46983 6.03405C5.59957 6.03405 6.51539 5.12116 6.51539 3.99519C6.51539 2.86921 5.59957 1.9569 4.46983 1.9569C3.34009 1.9569 2.42427 2.86921 2.42427 3.99519ZM3.14211 3.99519C3.14211 3.26465 3.73646 2.67194 4.46983 2.67194C5.2032 2.67194 5.79755 3.26465 5.79755 3.99519C5.79755 4.72612 5.2032 5.31901 4.46983 5.31901C3.73646 5.31901 3.14211 4.72612 3.14211 3.99519Z" fill="white"/>
</svg>
