<svg width="23" height="22" viewBox="0 0 23 22" fill="none" xmlns="http://www.w3.org/2000/svg">
<ellipse cx="11.2113" cy="11" rx="11.0094" ry="11" fill="#3D3C49"/>
<g clip-path="url(#clip0_115_10432)">
<path fill-rule="evenodd" clip-rule="evenodd" d="M8.61306 4.7915C7.58895 4.83767 6.7013 5.08784 5.98454 5.80096C5.26528 6.51783 5.01801 7.40823 4.97169 8.42082C4.94289 9.05284 4.77451 13.8276 5.26278 15.0798C5.59205 15.9245 6.24056 16.574 7.09378 16.9041C7.49191 17.0588 7.94639 17.1635 8.61306 17.1941C14.1875 17.4462 16.2539 17.309 17.1252 15.0798C17.2799 14.6829 17.3863 14.2293 17.4157 13.5648C17.6705 7.98086 17.3744 6.7705 16.4029 5.80096C15.6323 5.03293 14.7258 4.51012 8.61306 4.7915ZM8.66438 16.0711C8.05404 16.0436 7.7229 15.942 7.50193 15.8566C6.94605 15.6407 6.52852 15.2252 6.31381 14.6731C5.94197 13.7216 6.06529 9.20268 6.09847 8.47147C6.13102 7.75522 6.27625 7.10063 6.78205 6.59527C7.40803 5.97136 8.2168 5.66559 13.7236 5.9139C14.4423 5.94635 15.0989 6.09115 15.606 6.59527C16.232 7.21917 16.5424 8.03346 16.2895 13.5145C16.262 14.1228 16.16 14.4528 16.0742 14.6731C15.5077 16.1237 14.2044 16.325 8.66438 16.0711ZM13.7843 7.66212C13.7843 8.07515 14.1205 8.411 14.5355 8.411C14.9506 8.411 15.2873 8.07515 15.2873 7.66212C15.2873 7.2491 14.9506 6.91354 14.5355 6.91354C14.1205 6.91354 13.7843 7.2491 13.7843 7.66212ZM7.97956 10.9925C7.97956 12.7619 9.41871 14.1964 11.194 14.1964C12.9693 14.1964 14.4085 12.7619 14.4085 10.9925C14.4085 9.22311 12.9693 7.78949 11.194 7.78949C9.41871 7.78949 7.97956 9.22311 7.97956 10.9925ZM9.10759 10.9925C9.10759 9.84452 10.0416 8.91312 11.194 8.91312C12.3465 8.91312 13.2804 9.84452 13.2804 10.9925C13.2804 12.1411 12.3465 13.0728 11.194 13.0728C10.0416 13.0728 9.10759 12.1411 9.10759 10.9925Z" fill="white"/>
</g>
<defs>
<clipPath id="clip0_115_10432">
<rect width="12.5822" height="12.5714" fill="white" transform="translate(4.92041 4.71436)"/>
</clipPath>
</defs>
</svg>
