<svg width="12" height="12" viewBox="0 0 12 12" fill="none" xmlns="http://www.w3.org/2000/svg">
<path d="M11.7748 4.45069C11.6867 4.18837 11.4597 3.99712 11.1863 3.95531L8.00459 3.46913L6.57547 0.424688C6.4536 0.165188 6.19316 0 5.90703 0C5.62072 0 5.36047 0.165188 5.23859 0.424688L3.80928 3.46931L0.627595 3.9555C0.35422 3.99731 0.127157 4.18837 0.0392196 4.45088C-0.0487179 4.71338 0.0176571 5.0025 0.21097 5.20088L2.53447 7.58344L1.98416 10.9541C1.93878 11.2331 2.05709 11.5136 2.28791 11.6768C2.51853 11.8399 2.82303 11.8564 3.07109 11.7195L5.90722 10.1511L8.74335 11.7195C8.85528 11.7814 8.97847 11.8117 9.1011 11.8117C9.25035 11.8117 9.39959 11.7664 9.52653 11.6768C9.75734 11.5138 9.87547 11.2333 9.83009 10.9541L9.27978 7.58344L11.6035 5.20088C11.7964 5.0025 11.8628 4.71338 11.7748 4.45069Z" fill="#FB8800"/>
</svg>
