<svg width="9" height="8" viewBox="0 0 9 8" fill="none" xmlns="http://www.w3.org/2000/svg">
<path fill-rule="evenodd" clip-rule="evenodd" d="M3.01473 7.19972C6.03612 7.19972 7.68873 4.73715 7.68873 2.60187C7.68873 2.53177 7.68873 2.4622 7.68392 2.39289C8.0054 2.16447 8.28284 1.88087 8.50343 1.55636C8.20397 1.68711 7.8857 1.77286 7.56022 1.81066C7.90291 1.60863 8.15953 1.29123 8.28244 0.916715C7.95976 1.10496 7.60706 1.23781 7.23914 1.3091C6.61701 0.65851 5.57652 0.626988 4.91476 1.23898C4.48839 1.63358 4.30704 2.22193 4.43955 2.78312C3.11882 2.71775 1.88817 2.10419 1.05386 1.09484C0.617886 1.83324 0.840876 2.77752 1.56269 3.25168C1.30127 3.24419 1.04545 3.17495 0.816856 3.04972V3.07023C0.817256 3.83936 1.36853 4.50162 2.13478 4.65402C1.89298 4.719 1.63916 4.72842 1.39335 4.68156C1.60833 5.34002 2.22526 5.79102 2.92786 5.80402C2.34616 6.25376 1.62755 6.49797 0.887716 6.49718C0.757205 6.49679 0.626693 6.4893 0.496582 6.47394C1.24802 6.9481 2.12197 7.19973 3.01473 7.19855" fill="white"/>
</svg>
