<svg width="9" height="6" viewBox="0 0 9 6" fill="none" xmlns="http://www.w3.org/2000/svg">
<path fill-rule="evenodd" clip-rule="evenodd" d="M3.71325 4.03464V1.78991C4.51081 2.16489 5.12852 2.52712 5.85909 2.91765C5.25653 3.25153 4.51081 3.62616 3.71325 4.03464ZM8.15807 0.673509C8.02049 0.492405 7.78601 0.351431 7.53637 0.304759C6.80261 0.165539 2.22499 0.165143 1.49163 0.304759C1.29144 0.342255 1.11318 0.432888 0.96005 0.573704C0.31482 1.17206 0.517005 4.38088 0.67253 4.90066C0.73793 5.12564 0.822475 5.2879 0.92895 5.39441C1.06613 5.53522 1.25395 5.63218 1.4697 5.67566C2.07385 5.80052 5.18634 5.87033 7.52361 5.69441C7.73895 5.65691 7.92956 5.55683 8.07991 5.41003C8.67648 4.81406 8.63581 1.42505 8.15807 0.673509Z" fill="white"/>
</svg>
