<svg width="151" height="39" viewBox="0 0 151 39" fill="none" xmlns="http://www.w3.org/2000/svg">
<path d="M130.804 39H130.797C129.605 39 128.404 38.8797 127.226 38.6429C125.6 38.2974 124.388 37.0119 124.204 35.4405L123.795 31.7752L120.155 31.7774C119.52 31.7774 118.886 31.6227 118.335 31.3353C116.919 31.9219 115.385 32.2199 113.775 32.2218C110.874 32.2218 108.478 31.3856 106.653 29.7396C105.833 29.008 105.185 28.1744 104.715 27.2481L104.046 29.2328C103.539 30.7566 102.071 31.7827 100.396 31.7827L95.6926 31.7848C94.407 31.7848 93.2328 31.1668 92.5272 30.1942C91.8248 31.1683 90.6538 31.7855 89.3666 31.7855L84.602 31.7876C83.2074 31.7876 81.9566 31.0764 81.2803 29.9571C80.8797 30.509 80.3186 30.953 79.6478 31.2255C78.0535 31.8924 76.2479 32.232 74.2874 32.232C72.8743 32.232 71.5617 31.9909 70.3857 31.5142C69.0503 30.962 68.0046 30.1845 67.2721 29.2026L67.2699 29.2044L67.1415 29.0252C66.9722 28.7878 66.8194 28.5401 66.6819 28.2797C66.2963 28.7337 65.8512 29.1725 65.3491 29.5926C63.1922 31.3489 60.2345 32.237 56.5515 32.2376C53.2664 32.2376 50.5328 31.5347 48.4234 30.1472C47.6872 29.6646 47.0207 29.1075 46.4356 28.4858C45.839 29.1476 45.1641 29.7262 44.3895 30.2457C42.3849 31.5711 39.9419 32.2423 37.1242 32.2439C31.5175 32.2439 28.4582 29.7753 26.8779 27.7051C26.8534 27.6732 26.8285 27.6414 26.8037 27.6088C26.1495 28.4416 25.395 29.1532 24.5498 29.7312L24.4248 29.9266L24.2523 29.932C22.8515 30.8436 21.1485 31.4123 19.1855 31.6202L19.1282 31.6264L19.1122 31.6255C18.4644 31.6824 17.0787 31.7632 12.577 31.8088L3.85549 31.811C1.73258 31.811 0.00723867 30.1638 0.00723867 28.1402L1.86047e-07 3.68168C-0.000314599 2.6988 0.398835 1.77434 1.12505 1.08046C1.85126 0.386258 2.81764 0.00311045 3.84636 0.00311045L14.0338 0C16.2851 0 17.9607 0.0919854 19.2079 0.283402C20.6848 0.52547 22.0359 1.0267 23.2343 1.77434H23.2523L23.454 1.91449C24.7075 2.75473 25.7371 3.83145 26.5081 5.11295C27.3787 6.51626 27.8233 8.10475 27.8245 9.82597C27.8245 9.85702 27.8238 9.88814 27.8235 9.91949C30.1882 7.53488 33.1528 6.32858 36.6423 6.32795C40.4836 6.32795 43.7284 7.6685 46.0323 10.2047C46.0981 10.2775 46.1611 10.3493 46.2218 10.4192C46.666 9.82753 47.1872 9.28372 47.7768 8.79497C49.7575 7.15546 52.576 6.3233 56.1545 6.32267C59.4759 6.32267 62.0183 6.91588 63.9373 8.13712C64.0006 8.1769 64.0626 8.21761 64.1237 8.25856C64.5165 7.73748 65.0469 7.32171 65.6642 7.05416V6.89412C65.6636 5.61511 66.3891 4.40011 67.557 3.723L72.4699 0.958955C73.6317 0.314169 75.144 0.30919 76.321 0.940618C77.5146 1.59535 78.2538 2.81812 78.2538 4.13412L78.2544 6.75522C78.419 6.73192 78.5814 6.72042 78.7536 6.72042L83.5045 6.71855C84.8944 6.71855 86.1555 7.4398 86.8295 8.54911C87.4956 7.43948 88.7503 6.71763 90.1528 6.71763L94.8621 6.71546C96.2552 6.71546 97.5091 7.43264 98.1879 8.5442C98.8642 7.43544 100.123 6.71483 101.5 6.71297H106.334C107.388 6.71297 108.392 7.13122 109.108 7.84937C110.939 6.81147 113.259 6.30526 116.174 6.30465C118.952 6.30465 121.089 6.66512 122.716 7.40686C123.017 7.54421 123.311 7.69491 123.606 7.86427C124.325 7.13247 125.337 6.70738 126.405 6.70613H131.61C133.268 6.70613 134.732 7.71418 135.254 9.21508L135.995 11.3035L136.704 9.23153C137.223 7.71977 138.689 6.70333 140.353 6.70239L145.404 6.70115C146.67 6.70115 147.848 7.29001 148.556 8.27447C149.278 9.25798 149.451 10.5211 149.015 11.647L144.194 24.3035C143.401 26.4478 140.738 32.7261 139.575 35.0992L139.511 35.2021C138.876 36.0401 138.167 36.7291 137.404 37.248L137.262 37.3462C136.355 37.9012 135.353 38.3226 134.281 38.597C133.217 38.8648 132.047 39 130.804 39ZM125.191 30.5018L125.111 31.2075C125.096 31.3386 125.097 31.4853 125.115 31.6083L125.526 35.3012C125.646 36.3295 126.442 37.1722 127.507 37.3975C128.587 37.6153 129.697 37.7269 130.797 37.7269V38.3633L130.804 37.7269C131.934 37.7269 132.989 37.6047 133.942 37.3664C134.866 37.1299 135.733 36.7676 136.518 36.2904C136.542 36.2723 136.57 36.2521 136.597 36.2344C137.265 35.7804 137.858 35.2068 138.399 34.5035C139.562 32.1158 142.164 25.9852 142.943 23.8728L147.767 11.2066C148.053 10.4711 147.94 9.6479 147.464 9.00159C147.001 8.35676 146.233 7.97456 145.406 7.97456L140.355 7.97519C139.266 7.97644 138.307 8.6399 137.969 9.62738L136.018 15.3274L133.995 9.62122C133.652 8.63772 132.696 7.97924 131.614 7.97924H126.406C125.604 7.98018 124.85 8.34779 124.378 8.96555C124.339 9.03919 124.271 9.14269 124.149 9.22779L123.772 9.48761L123.388 9.23988C122.969 8.97078 122.562 8.74645 122.145 8.55598C120.701 7.89812 118.751 7.57745 116.186 7.57745C113.254 7.579 111.02 8.11504 109.341 9.21726L108.691 9.64415L108.36 8.97203C107.892 8.35489 107.136 7.98673 106.34 7.98673H101.502C100.396 7.98736 99.4079 8.69989 99.0965 9.71849L98.142 12.8756L97.3069 9.80671C97.0177 8.73655 96.0126 7.98853 94.8629 7.98853L90.1536 7.98977C89.0071 7.98977 88.0107 8.72625 87.7326 9.77964L86.8642 12.884L85.9192 9.72933C85.6166 8.70511 84.6257 7.99133 83.5069 7.99133L78.7561 7.99352C78.6201 7.99352 78.5008 8.0035 78.3708 8.02612L78.249 8.04726L78.1288 8.02558C78.012 8.00413 77.8801 7.99321 77.7375 7.99321H76.9247L76.9238 4.13349C76.9238 3.27243 76.4421 2.4732 75.6659 2.0478C74.9012 1.63731 73.8971 1.63637 73.141 2.05773L68.2392 4.81588C67.4626 5.26553 66.9944 6.04363 66.9951 6.89227V7.96435L66.5239 8.10139C65.809 8.31051 65.2295 8.80394 64.9336 9.45493L64.5905 10.2125L63.913 9.70234C63.6675 9.5174 63.4355 9.3437 63.2045 9.19737C61.5081 8.11785 59.2058 7.59516 56.1636 7.59516C52.9056 7.59578 50.3798 8.32291 48.6476 9.7564C47.9182 10.3607 47.3116 11.0615 46.8457 11.8384L46.3235 12.7093L45.7235 11.8853C45.5327 11.624 45.3045 11.3458 45.0269 11.0357C42.9852 8.78935 40.0876 7.59982 36.6495 7.59982C33.496 7.60075 30.8304 8.69895 28.7195 10.8645C28.2089 11.4024 27.7562 11.9944 27.3797 12.6183L26.1643 12.1255C26.3834 11.3893 26.4946 10.6156 26.4946 9.82535C26.4933 8.33594 26.1121 6.96591 25.3604 5.75432C24.6978 4.65274 23.8235 3.72891 22.7571 3.00053L22.6589 2.9362C21.5772 2.22958 20.343 1.76036 18.9913 1.53786C17.8219 1.3595 16.2149 1.27188 14.0863 1.27188L3.84731 1.27467C3.17398 1.27467 2.54126 1.52574 2.06625 1.98005C1.59155 2.43467 1.33029 3.03782 1.3306 3.67981L1.33816 28.1393C1.33816 29.4618 2.46666 30.5375 3.85423 30.5375L12.5508 30.5335L12.5943 30.535C16.9641 30.4907 18.3331 30.4133 18.9677 30.3583L19.0684 30.3514C20.7954 30.1643 22.2824 29.6715 23.493 28.886L23.5752 28.6501L23.8529 28.6429C24.7859 27.9891 25.5936 27.1414 26.2569 26.1219L26.844 25.2189L27.3979 26.1415C27.5749 26.4358 27.7603 26.7077 27.9488 26.9485C29.3509 28.7871 32.0763 30.9704 37.121 30.9704C39.6671 30.9689 41.8561 30.3741 43.6308 29.2005C44.5191 28.6056 45.2592 27.9189 45.8904 27.102L46.4141 26.424L46.9518 27.0917C47.5697 27.8602 48.3182 28.5351 49.176 29.0966C51.0604 30.3365 53.5406 30.9636 56.5487 30.9636C59.9106 30.963 62.5781 30.1774 64.4809 28.628C65.2295 28.0016 65.8351 27.3289 66.2733 26.6343L67.0351 25.4289L67.4774 26.7726C67.677 27.3807 67.942 27.9031 68.2873 28.3705L68.4088 28.5376C68.9742 29.2744 69.8229 29.894 70.9092 30.3439C71.9164 30.7517 73.0538 30.9589 74.2881 30.9589C76.0638 30.9589 77.6902 30.6547 79.1224 30.0562C79.9647 29.715 80.5367 28.964 80.6213 28.0954L81.9163 27.9606L82.2095 28.839C82.539 29.8256 83.5227 30.5145 84.6028 30.5145L89.3674 30.513C90.5005 30.513 91.4985 29.7781 91.7932 28.7262L92.5383 26.089L93.266 28.7396C93.5615 29.7802 94.5619 30.5117 95.6934 30.5117L100.396 30.5093C101.49 30.5093 102.448 29.8405 102.779 28.8443L104.812 22.8219L105.342 25.1095C105.675 26.5489 106.423 27.7937 107.563 28.8102C109.136 30.2296 111.224 30.9481 113.773 30.9481C115.211 30.9474 116.575 30.6815 117.829 30.1572L117.883 30.1383C117.949 30.1162 118.025 30.0786 118.093 30.0475L118.443 29.8806L118.765 30.0944C119.163 30.3595 119.657 30.5043 120.156 30.5043L125.191 30.5018Z" fill="#2E79BD"/>
<path d="M125.193 30.5L125.113 31.2057C125.098 31.3368 125.099 31.4835 125.116 31.6065L125.528 35.2994C125.648 36.3276 126.444 37.1704 127.509 37.3956C128.589 37.6135 129.698 37.725 130.798 37.725V38.3614L130.805 37.725C131.935 37.725 132.991 37.6029 133.943 37.3646C134.868 37.1281 135.734 36.7658 136.52 36.2885C136.544 36.2705 136.572 36.2503 136.599 36.2326C137.266 35.7785 137.86 35.2049 138.4 34.5017C139.563 32.1139 142.165 25.9834 142.944 23.8709L147.768 11.2048C148.054 10.4692 147.941 9.6461 147.466 8.99972C147.002 8.35497 146.235 7.97269 145.407 7.97269L140.356 7.97332C139.268 7.97456 138.309 8.63803 137.97 9.62559L136.019 15.3255L133.997 9.61935C133.654 8.63585 132.697 7.97737 131.615 7.97737H126.408C125.605 7.97831 124.851 8.34592 124.379 8.96368C124.341 9.03731 124.273 9.14082 124.15 9.22592L123.774 9.48574L123.389 9.23809C122.971 8.96899 122.564 8.74458 122.147 8.5541C120.703 7.89625 118.753 7.57559 116.188 7.57559C113.256 7.57715 111.021 8.11317 109.343 9.21539L108.693 9.64236L108.361 8.97023C107.893 8.3531 107.137 7.98486 106.342 7.98486H101.503C100.397 7.98548 99.4088 8.69801 99.0983 9.71662L98.143 12.8737L97.3086 9.80483C97.0194 8.73467 96.0144 7.98673 94.8639 7.98673L90.1546 7.98798C89.0089 7.98798 88.0125 8.72438 87.7344 9.77785L86.866 12.8822L85.921 9.72746C85.6184 8.70332 84.6267 7.98954 83.5087 7.98954L78.7575 7.99165C78.6215 7.99165 78.5023 8.00163 78.3722 8.02433L78.2504 8.04547L78.1302 8.0237C78.0134 8.00225 77.8815 7.99133 77.7389 7.99133H76.9261L76.9252 4.13164C76.9252 3.27057 76.4436 2.47135 75.6673 2.04595C74.9027 1.63546 73.8986 1.63451 73.1424 2.05589L68.2405 4.81404C67.464 5.26367 66.9959 6.04178 66.9965 6.89041V7.96247L66.5253 8.09952C65.8104 8.30864 65.2309 8.80207 64.935 9.45313L64.5919 10.2107L63.9145 9.70047C63.669 9.51553 63.4369 9.34183 63.2059 9.1955C61.5095 8.11598 59.2072 7.59331 56.1651 7.59331C52.9071 7.59393 50.3812 8.32104 48.649 9.75452C47.9197 10.3589 47.3131 11.0596 46.8471 11.8365L46.3249 12.7075L45.7249 11.8834C45.5342 11.6221 45.3059 11.3439 45.0283 11.0338C42.9866 8.78748 40.089 7.59796 36.6509 7.59796C33.4974 7.59889 30.8318 8.69708 28.7208 10.8626C28.2103 11.4005 27.7576 11.9925 27.3812 12.6164L26.1657 12.1236C26.3849 11.3875 26.4959 10.6137 26.4959 9.82348C26.4947 8.33414 26.1135 6.96405 25.3618 5.75247C24.6991 4.65089 23.825 3.72705 22.7585 2.99867L22.6603 2.93435C21.5787 2.22772 20.3444 1.7585 18.9928 1.53601C17.8233 1.35764 16.2163 1.27002 14.0878 1.27002L3.84874 1.27282C3.17541 1.27282 2.54269 1.52389 2.06768 1.9782C1.59299 2.43281 1.33172 3.03596 1.33203 3.67796L1.33959 28.1374C1.33959 29.4599 2.46809 30.5357 3.85566 30.5357L12.5523 30.5317L12.5956 30.5332C16.9655 30.4888 18.3345 30.4114 18.9691 30.3564L19.0699 30.3496C20.7968 30.1625 22.2838 29.6696 23.4945 28.8841L23.5767 28.6482L23.8543 28.6411C24.7873 27.9873 25.595 27.1396 26.2583 26.1201L26.8454 25.217L27.3994 26.1396C27.5763 26.4339 27.7617 26.7058 27.9503 26.9467C29.3523 28.7853 32.0777 30.9686 37.1225 30.9686C39.6684 30.967 41.8575 30.3723 43.6322 29.1986C44.5206 28.6038 45.2606 27.9171 45.8917 27.1002L46.4156 26.4221L46.9532 27.0899C47.5711 27.8583 48.3197 28.5333 49.1775 29.0948C51.0618 30.3347 53.542 30.9617 56.5501 30.9617C59.912 30.9611 62.5794 30.1756 64.4824 28.6262C65.2309 27.9997 65.8365 27.327 66.2747 26.6325L67.0365 25.4271L67.4788 26.7708C67.6784 27.3789 67.9435 27.9012 68.2887 28.3686L68.4103 28.5358C68.9756 29.2725 69.8242 29.8922 70.9106 30.3421C71.9179 30.7498 73.0552 30.9571 74.2895 30.9571C76.0652 30.9571 77.6917 30.6528 79.1241 30.0543C79.9664 29.7132 80.5377 28.9621 80.6223 28.0936L81.9181 27.9587L82.2105 28.8371C82.5407 29.8238 83.5245 30.5127 84.6046 30.5127L89.3684 30.5112C90.5023 30.5112 91.5002 29.7763 91.7942 28.7244L92.5401 26.0871L93.2678 28.7378C93.5633 29.7785 94.5629 30.5099 95.6944 30.5099L100.397 30.5074C101.492 30.5074 102.449 29.8387 102.781 28.8425L104.813 22.82L105.344 25.1077C105.677 26.547 106.424 27.7919 107.565 28.8083C109.137 30.2277 111.226 30.9462 113.775 30.9462C115.213 30.9456 116.576 30.6796 117.831 30.1553L117.884 30.1364C117.95 30.1143 118.027 30.0767 118.094 30.0457L118.445 29.8788L118.767 30.0926C119.165 30.3576 119.658 30.5024 120.157 30.5024L125.193 30.5Z" fill="white"/>
<path d="M149.427 29.1207C149.428 30.1108 148.596 30.8963 147.539 30.8969C146.481 30.8969 145.638 30.1114 145.637 29.1213C145.637 28.1311 146.48 27.3545 147.549 27.3545C148.595 27.3545 149.427 28.1295 149.427 29.1207ZM146.11 29.1207C146.11 29.9072 146.729 30.5309 147.55 30.5309C148.348 30.5409 148.955 29.9066 148.955 29.1307C148.955 28.3448 148.347 27.7096 147.526 27.7096C146.728 27.7109 146.11 28.3451 146.11 29.1207ZM147.246 30.0353H146.818V28.2693C146.987 28.2491 147.223 28.2155 147.526 28.2155C147.875 28.2155 148.033 28.2693 148.156 28.3551C148.268 28.4309 148.347 28.5604 148.347 28.7323C148.347 28.9483 148.18 29.0875 147.966 29.1528V29.1742C148.146 29.2274 148.236 29.3668 148.291 29.6049C148.348 29.873 148.394 29.9703 148.426 30.0353H147.977C147.921 29.9709 147.887 29.8202 147.831 29.6049C147.797 29.4206 147.685 29.3351 147.448 29.3351H147.245V30.0353H147.246ZM147.257 29.0446H147.459C147.696 29.0446 147.887 28.9688 147.887 28.787C147.887 28.6251 147.763 28.5176 147.492 28.5176C147.381 28.5176 147.302 28.5272 147.257 28.5384V29.0446Z" fill="#4470B4"/>
<path d="M43.1413 12.6225C41.5616 10.8892 39.3994 10.0122 36.6428 10.0122C34.1777 10.0128 32.1753 10.8525 30.5536 12.5147C28.957 14.192 28.1496 16.4843 28.1509 19.4218C28.1518 21.8835 28.7596 23.921 29.9892 25.5453C31.5345 27.5648 33.9149 28.5766 37.1232 28.5766C39.1542 28.576 40.8483 28.1158 42.2032 27.2242C43.557 26.3278 44.5467 25.0115 45.1722 23.2877L40.3201 22.5196C40.0356 23.4006 39.6408 24.051 39.1215 24.449C38.5992 24.8489 37.947 25.055 37.1914 25.055C36.0639 25.0556 35.1193 24.6706 34.3572 23.9018C33.6095 23.1259 33.2195 22.0262 33.1802 20.6461L45.4335 20.6427C45.4924 17.0537 44.7488 14.3757 43.1413 12.6225ZM33.2649 17.7944C33.2432 16.499 33.5843 15.4831 34.2917 14.7339C34.9908 13.9752 35.86 13.6165 36.9422 13.6156C37.9325 13.6156 38.7849 13.9739 39.4736 14.6733C40.1753 15.3865 40.5499 16.4229 40.5817 17.792L33.2649 17.7944Z" fill="url(#paint0_linear_45_3915)"/>
<path d="M63.421 19.1071C62.386 18.3029 60.5671 17.6041 57.9692 17.0297C55.4003 16.4621 53.871 16.0282 53.4278 15.7154C53.1055 15.4782 52.9579 15.1936 52.9579 14.8661C52.9575 14.4562 53.1319 14.1486 53.5141 13.9059C54.0681 13.5548 54.9772 13.3758 56.2398 13.3758C57.2499 13.3742 58.0422 13.5598 58.5755 13.9335C59.1166 14.3036 59.5026 14.8279 59.6943 15.5077L64.3326 14.7048C63.8762 13.1405 63.0156 11.9715 61.7964 11.1829C60.553 10.3886 58.6857 10.0073 56.1551 10.0073C53.5125 10.0073 51.5473 10.538 50.2856 11.5781C49.0196 12.6216 48.3865 13.9196 48.3865 15.4615C48.3884 17.1712 49.1181 18.5077 50.5903 19.4688C51.6393 20.1602 54.1266 20.9302 58.0652 21.7502C58.9101 21.9469 59.462 22.1539 59.6968 22.3808C59.93 22.6029 60.0494 22.909 60.0494 23.257C60.0503 23.781 59.8328 24.2107 59.3942 24.5131C58.7729 24.9662 57.8178 25.1877 56.5496 25.1886C55.4031 25.1886 54.5132 24.9562 53.8732 24.495C53.2443 24.0215 52.832 23.3353 52.6078 22.4438L47.7085 23.18C48.1665 24.8315 49.1077 26.1373 50.5929 27.1205C52.0626 28.0804 54.031 28.5704 56.5505 28.5704C59.3257 28.5689 61.407 27.9695 62.8455 26.8082C64.2436 25.6417 64.9493 24.2319 64.949 22.6023C64.948 21.1108 64.4519 19.9622 63.421 19.1071Z" fill="url(#paint1_linear_45_3915)"/>
<path d="M75.7734 24.6719C75.4413 24.6719 75.1803 24.6013 74.9537 24.4391C74.7314 24.2753 74.5781 24.0855 74.5118 23.854C74.4532 23.6066 74.4201 22.7555 74.4201 21.3152L74.4169 14.142L77.7392 14.1414L77.7376 10.3969L74.4169 10.3976L74.4142 4.13428L69.5082 6.8918L69.5095 10.3982L67.249 10.3997L67.25 14.1445H69.5111L69.5123 21.8923C69.5136 23.5498 69.5677 24.6606 69.6672 25.2001C69.7934 25.9745 70.0257 26.5872 70.3613 27.0363C70.6905 27.4813 71.203 27.8547 71.9025 28.1459C72.6104 28.4213 73.4052 28.5657 74.286 28.5657C75.7054 28.5657 77.001 28.3177 78.1311 27.8526L77.7405 24.2185C76.8795 24.527 76.2141 24.6719 75.7734 24.6719Z" fill="url(#paint2_linear_45_3915)"/>
<path d="M97.9633 22.001L94.8628 10.3918L90.1527 10.3927L86.9755 22.0054L83.5059 10.3946L78.7539 10.3955L84.6011 28.1149L89.3657 28.1143L92.4899 16.7253L95.6916 28.1121L100.395 28.1103L106.334 10.3877L101.501 10.3899L97.9633 22.001Z" fill="url(#paint3_linear_45_3915)"/>
<path d="M123.917 22.2914L124.004 16.808C124.004 14.7718 123.778 13.3753 123.341 12.6192C122.901 11.8567 122.141 11.2253 121.067 10.7311C119.992 10.2405 118.364 9.98912 116.175 9.98975C113.749 9.98975 111.931 10.4077 110.712 11.2278C109.491 12.0614 108.632 13.3218 108.13 15.0533L112.532 15.8143C112.843 14.9768 113.252 14.4091 113.732 14.0856C114.232 13.7584 114.919 13.5941 115.798 13.5941C117.101 13.5934 117.991 13.7739 118.464 14.167C118.925 14.5446 119.166 15.1825 119.166 16.0858V16.5573C118.274 16.9133 116.697 17.2972 114.393 17.7148C112.699 18.0243 111.392 18.3907 110.49 18.8136C109.585 19.2228 108.889 19.8231 108.389 20.6118C107.882 21.3943 107.632 22.2967 107.632 23.2957C107.632 24.8152 108.174 26.0638 109.279 27.0544C110.368 28.0454 111.877 28.5562 113.774 28.5547C114.871 28.5547 115.89 28.3509 116.834 27.9546C117.776 27.5752 118.665 26.9948 119.509 26.1999C119.549 26.295 119.601 26.4793 119.704 26.7518C119.882 27.3345 120.04 27.8036 120.155 28.1057L125.029 28.1042C124.6 27.2707 124.31 26.4771 124.157 25.726C124.007 24.988 123.917 23.8395 123.917 22.2914ZM119.166 20.5456C119.166 21.6699 119.102 22.4375 118.969 22.8408C118.783 23.4542 118.393 23.983 117.788 24.4147C116.998 24.9675 116.155 25.2437 115.272 25.2437C114.482 25.2437 113.81 25.0163 113.307 24.5172C112.792 24.0436 112.536 23.4837 112.536 22.824C112.534 22.1385 112.856 21.5885 113.499 21.1338C113.917 20.8812 114.807 20.6022 116.179 20.312C117.543 20.0339 118.533 19.8014 119.166 19.5991V20.5456Z" fill="url(#paint4_linear_45_3915)"/>
<path d="M140.355 10.3786L136.049 22.9528L131.611 10.3807L126.407 10.3832L133.45 28.1397C133.161 29.1483 132.748 29.9631 132.198 30.6147C131.659 31.2533 130.809 31.588 129.672 31.588C129.054 31.588 128.377 31.5162 127.612 31.3605L128.024 35.0456C128.931 35.2348 129.86 35.3274 130.801 35.3274C131.729 35.3262 132.555 35.2339 133.308 35.0434C134.027 34.8526 134.652 34.577 135.176 34.2607C135.68 33.9123 136.117 33.457 136.502 32.9096C136.902 32.3735 137.298 31.5693 137.744 30.528L138.929 27.4178L145.405 10.3779L140.355 10.3786Z" fill="url(#paint5_linear_45_3915)"/>
<path d="M20.4174 15.1355C21.5192 14.6476 22.394 13.9258 23.0248 12.9686C23.6591 12.0131 23.989 10.9687 23.989 9.8264C23.988 8.77177 23.724 7.82212 23.1901 6.96202C22.6842 6.11711 22.0157 5.43969 21.2374 4.92417C20.4524 4.41238 19.5628 4.07025 18.5671 3.91021C17.5705 3.75112 16.0631 3.67529 14.0352 3.67529L3.84717 3.67809L3.85441 28.1382L12.5374 28.1353C15.838 28.0971 17.8954 28.0446 18.7595 27.9719C20.1429 27.8246 21.2875 27.4508 22.2275 26.8001C23.1649 26.1793 23.8965 25.3337 24.4483 24.2831C25.0011 23.2474 25.261 22.1427 25.2604 21.0349C25.2604 19.6238 24.8342 18.4013 23.9978 17.3401C23.1627 16.3054 21.9681 15.5562 20.4174 15.1355ZM9.00712 7.74601L11.9624 7.7454C14.3827 7.7454 15.8644 7.77087 16.3681 7.82742C17.2338 7.92718 17.8709 8.20712 18.3034 8.677C18.7532 9.13844 18.9764 9.77641 18.9767 10.5268C18.9767 11.3099 18.7132 11.9485 18.2083 12.432C17.7056 12.9133 17.008 13.2178 16.1307 13.3043C15.6381 13.368 14.3846 13.386 12.3797 13.386L9.00871 13.3882L9.00712 7.74601ZM19.2071 22.8695C18.7167 23.3956 18.0984 23.7032 17.3354 23.8403C16.8286 23.9385 15.6422 23.9872 13.8022 23.9891L9.01281 23.9897L9.01092 17.4579L13.1802 17.4564C15.5119 17.4557 17.0417 17.5816 17.7522 17.8041C18.4614 18.0434 18.9937 18.4157 19.3705 18.9225C19.7388 19.438 19.9412 20.0554 19.9412 20.7959C19.9422 21.6592 19.6774 22.3453 19.2071 22.8695Z" fill="url(#paint6_linear_45_3915)"/>
<defs>
<linearGradient id="paint0_linear_45_3915" x1="36.7925" y1="8.90515" x2="36.798" y2="27.4682" gradientUnits="userSpaceOnUse">
<stop stop-color="#69A8DE"/>
<stop offset="0.0145" stop-color="#69A8DE"/>
<stop offset="0.1625" stop-color="#4A70B4"/>
<stop offset="0.3556" stop-color="#312B80"/>
<stop offset="0.4388" stop-color="#312A7A"/>
<stop offset="0.5763" stop-color="#2E296B"/>
<stop offset="0.7056" stop-color="#2B275B"/>
<stop offset="0.756" stop-color="#2A2657"/>
<stop offset="0.8438" stop-color="#26224E"/>
<stop offset="0.9576" stop-color="#1F1A3E"/>
<stop offset="1" stop-color="#1C1637"/>
</linearGradient>
<linearGradient id="paint1_linear_45_3915" x1="56.3257" y1="8.68296" x2="56.3312" y2="27.2453" gradientUnits="userSpaceOnUse">
<stop stop-color="#69A8DE"/>
<stop offset="0.0145" stop-color="#69A8DE"/>
<stop offset="0.1625" stop-color="#4A70B4"/>
<stop offset="0.3556" stop-color="#312B80"/>
<stop offset="0.4388" stop-color="#312A7A"/>
<stop offset="0.5763" stop-color="#2E296B"/>
<stop offset="0.7056" stop-color="#2B275B"/>
<stop offset="0.756" stop-color="#2A2657"/>
<stop offset="0.8438" stop-color="#26224E"/>
<stop offset="0.9576" stop-color="#1F1A3E"/>
<stop offset="1" stop-color="#1C1637"/>
</linearGradient>
<linearGradient id="paint2_linear_45_3915" x1="72.6992" y1="5.46784" x2="72.7064" y2="29.8929" gradientUnits="userSpaceOnUse">
<stop stop-color="#69A8DE"/>
<stop offset="0.0145" stop-color="#69A8DE"/>
<stop offset="0.1625" stop-color="#4A70B4"/>
<stop offset="0.3556" stop-color="#312B80"/>
<stop offset="0.4388" stop-color="#312A7A"/>
<stop offset="0.5763" stop-color="#2E296B"/>
<stop offset="0.7056" stop-color="#2B275B"/>
<stop offset="0.756" stop-color="#2A2657"/>
<stop offset="0.8438" stop-color="#26224E"/>
<stop offset="0.9576" stop-color="#1F1A3E"/>
<stop offset="1" stop-color="#1C1637"/>
</linearGradient>
<linearGradient id="paint3_linear_45_3915" x1="92.5508" y1="8.64362" x2="92.5562" y2="26.3586" gradientUnits="userSpaceOnUse">
<stop stop-color="#69A8DE"/>
<stop offset="0.0145" stop-color="#69A8DE"/>
<stop offset="0.1625" stop-color="#4A70B4"/>
<stop offset="0.3556" stop-color="#312B80"/>
<stop offset="0.4388" stop-color="#312A7A"/>
<stop offset="0.5763" stop-color="#2E296B"/>
<stop offset="0.7056" stop-color="#2B275B"/>
<stop offset="0.756" stop-color="#2A2657"/>
<stop offset="0.8438" stop-color="#26224E"/>
<stop offset="0.9576" stop-color="#1F1A3E"/>
<stop offset="1" stop-color="#1C1637"/>
</linearGradient>
<linearGradient id="paint4_linear_45_3915" x1="116.327" y1="8.66273" x2="116.332" y2="27.2261" gradientUnits="userSpaceOnUse">
<stop stop-color="#69A8DE"/>
<stop offset="0.0145" stop-color="#69A8DE"/>
<stop offset="0.1625" stop-color="#4A70B4"/>
<stop offset="0.3556" stop-color="#312B80"/>
<stop offset="0.4388" stop-color="#312A7A"/>
<stop offset="0.5763" stop-color="#2E296B"/>
<stop offset="0.7056" stop-color="#2B275B"/>
<stop offset="0.756" stop-color="#2A2657"/>
<stop offset="0.8438" stop-color="#26224E"/>
<stop offset="0.9576" stop-color="#1F1A3E"/>
<stop offset="1" stop-color="#1C1637"/>
</linearGradient>
<linearGradient id="paint5_linear_45_3915" x1="135.885" y1="9.07471" x2="135.893" y2="34.022" gradientUnits="userSpaceOnUse">
<stop stop-color="#69A8DE"/>
<stop offset="0.0145" stop-color="#69A8DE"/>
<stop offset="0.1625" stop-color="#4A70B4"/>
<stop offset="0.3556" stop-color="#312B80"/>
<stop offset="0.4388" stop-color="#312A7A"/>
<stop offset="0.5763" stop-color="#2E296B"/>
<stop offset="0.7056" stop-color="#2B275B"/>
<stop offset="0.756" stop-color="#2A2657"/>
<stop offset="0.8438" stop-color="#26224E"/>
<stop offset="0.9576" stop-color="#1F1A3E"/>
<stop offset="1" stop-color="#1C1637"/>
</linearGradient>
<linearGradient id="paint6_linear_45_3915" x1="14.5527" y1="3.66256" x2="14.5599" y2="28.1223" gradientUnits="userSpaceOnUse">
<stop stop-color="#69A8DE"/>
<stop offset="0.0145" stop-color="#69A8DE"/>
<stop offset="0.1625" stop-color="#4A70B4"/>
<stop offset="0.3556" stop-color="#312B80"/>
<stop offset="0.4388" stop-color="#312A7A"/>
<stop offset="0.5763" stop-color="#2E296B"/>
<stop offset="0.7056" stop-color="#2B275B"/>
<stop offset="0.756" stop-color="#2A2657"/>
<stop offset="0.8438" stop-color="#26224E"/>
<stop offset="0.9576" stop-color="#1F1A3E"/>
<stop offset="1" stop-color="#1C1637"/>
</linearGradient>
</defs>
</svg>
